<svg id="Layer_1" data-name="Layer 1" xmlns="http://www.w3.org/2000/svg" viewBox="0 0 207.08 41.05"><defs><style>.cls-1{fill:#ed135d;}.cls-2{fill:#231f20;}</style></defs><title>SW_Logo</title><path class="cls-1" d="M194.92.48C183.26,7.17,170.84,12.16,157,11.55c-9.7-.48-18.67-2.71-28-4.34a20.24,20.24,0,0,0-17.15,4.64L109.4,14h-.15C115.86,6.55,124.68,3.66,134,4.56l5.14.66,12.89,2.23c11,1.81,23.67,1.45,33.86-3a79,79,0,0,0,9-4.1Z" transform="translate(-1.74 -0.41)"/><path class="cls-2" d="M208.27,15.65l-.49,2.17c-.39-.06-.69-.54-1.08-.66a4.49,4.49,0,0,0-3.72-.42.65.65,0,0,0-.2.78l.44.42c2,1.33,5.73,1.33,5.59,5.18a3.9,3.9,0,0,1-2.6,2.83c-2.55.66-5.54.24-8.08-.24-.15-.36,0-.78,0-1.21l.1-1.45c1.42,1.39,3.53,2.23,5.29,1.14a1.12,1.12,0,0,0,.25-1.08l-.49-.48c-1.86-1-4.56-1.2-5.34-4a2.77,2.77,0,0,1,.69-2.35c2.06-1.63,4.66-1.27,7.1-1.08Z" transform="translate(-1.74 -0.41)"/><path class="cls-2" d="M197,15.47,193.38,26h-5.44l.2-.72c-.49-1.51-.83-3.25-1.42-4.7-.78,1.75-1.37,3.62-2,5.42l-5.39.06a1.53,1.53,0,0,0,.1-1.14L177,17l-.88-1.45c1.91,0,3.72-.12,5.54,0l2.2,7.59c.83-1.39,1.13-3.25,1.76-4.76a2.54,2.54,0,0,0-.15-2l-.59-.9h5.34c.83,2.53,1.32,5.18,2.3,7.59l.2-.3,1.62-4.82a3,3,0,0,0-.64-2.47A20,20,0,0,1,197,15.47Z" transform="translate(-1.74 -0.41)"/><path class="cls-2" d="M90.34,16.13c-.2.78-.39,1.57-.54,2.41A5.84,5.84,0,0,0,85.39,17a.69.69,0,0,0-.59.48c-.2.48.29.78.54,1,1.86,1.21,4.56,1.14,5.54,4a3.13,3.13,0,0,1-.78,2.83c-2.79,2.35-6.81,1.39-10,.84,0-1,.1-1.75.15-2.71a4.86,4.86,0,0,0,5.24,1.33c.34-.24.58-.82.34-1.14-1.18-1.21-2.79-1.33-4.12-2.17A3.49,3.49,0,0,1,79.95,19a3,3,0,0,1,1.42-2.71C84.11,15,87.45,15.71,90.34,16.13Z" transform="translate(-1.74 -0.41)"/><path class="cls-2" d="M12,16.19a14.77,14.77,0,0,0-.36,1.48l-.13.87a5.1,5.1,0,0,0-4.8-1.27.71.71,0,0,0-.2.9c.6,1,4.41,1.33,5.88,3.8a3.8,3.8,0,0,1,.2,2.11c-1,2.83-3.67,2.65-5.88,2.77a22,22,0,0,1-4.9-.66A13.36,13.36,0,0,0,2,23.66c1.32,1.08,2.89,1.93,4.65,1.45a1.33,1.33,0,0,0,1-.9,1,1,0,0,0-.59-1C5.13,22,1.5,22,1.75,18.24c.54-2.29,2.69-2.41,4.36-2.59A38.21,38.21,0,0,1,12,16.19Z" transform="translate(-1.74 -0.41)"/><path class="cls-2" d="M25.41,16.25l-.49,2.29a4.2,4.2,0,0,0-4.21-1.27,2.93,2.93,0,0,0-1.47,2.53c0,1.63-.29,3.55.88,4.64s3.18,1,4.41.12l1-.84c0,.72,0,1.51,0,2.17-3.18,1.27-7.89,1.81-10.49-1.51a6,6,0,0,1-.78-4.76c.88-2.89,3.43-3.86,5.73-4C21.94,15.47,23.6,16,25.41,16.25Z" transform="translate(-1.74 -0.41)"/><path class="cls-2" d="M70.05,15.71c-.15,1-.59,1.87-.69,2.89A6.14,6.14,0,0,0,66,17.34l-.15.12,0,8.13a4.09,4.09,0,0,0,.34.84H60.4l.34-1c0-2.83.15-5.18,0-8a6.91,6.91,0,0,0-4.26,1.27,27,27,0,0,0,.74-2.89A100.76,100.76,0,0,0,70.05,15.71Z" transform="translate(-1.74 -0.41)"/><path class="cls-2" d="M54.57,16,56,15.77a18,18,0,0,0-.64,2.83,5.52,5.52,0,0,0-3.58-1.14c-.1,2.77,0,5.48,0,8l.39,1.08H46.39c.73-1.75.24-4.1.44-6.15l-.1-2.89a7.63,7.63,0,0,0-4.21,1.27l.64-2.89c.73,0,1.62.12,2.3.18Z" transform="translate(-1.74 -0.41)"/><path class="cls-2" d="M130,26.38h-5.44a2,2,0,0,0,0-1.51c-.49-1.27-.64-2.65-1.22-3.86-.73,1.69-1.27,3.56-1.91,5.3l-.15.12h-5.24c.39-.9-.15-1.75-.29-2.59-1.08-2.59-1.27-5.72-2.94-8l5.44-.06.2.24c.74,2.47,1.22,5,2.06,7.35l.24-.3c.54-1.87,1.47-3.49,1.62-5.54a2.88,2.88,0,0,0-.88-1.69l5.29-.06.25.3,2,7.29.15-.06,1.72-4.82a3.31,3.31,0,0,0-.69-2.73c1.06,0,2.4,0,3.43,0Z" transform="translate(-1.74 -0.41)"/><path class="cls-2" d="M140.75,17.1v7.77a4.85,4.85,0,0,0,.44,1.45c-1.86.12-3.87,0-5.78.06a5,5,0,0,0,.44-1.69l-.1-7.77-.39-1.14h5.78Z" transform="translate(-1.74 -0.41)"/><path class="cls-2" d="M77.45,15.83A3.5,3.5,0,0,0,77,17.58a66.67,66.67,0,0,0,.15,8.32l.24.54-5.83.06A5.37,5.37,0,0,0,72,24.81V17.1a4.89,4.89,0,0,0-.44-1.21C73.43,15.77,75.54,15.89,77.45,15.83Z" transform="translate(-1.74 -0.41)"/><path class="cls-2" d="M98.72,15.89c-.64,1.08-.39,2.7-.44,4.09l.2,0,3.63,0a9.88,9.88,0,0,0-.15-3.62l-.31-.5,5.89,0a4.14,4.14,0,0,0-.49,1.63l.1,7.77a3.11,3.11,0,0,0,.39,1.14l-5.83,0c.78-1.21.34-3,.44-4.56l0-.12-3.77,0c0,1.57-.29,3.39.39,4.72l-5.83,0a4.65,4.65,0,0,0,.49-2.21L93.28,17l-.39-1.08Z" transform="translate(-1.74 -0.41)"/><path class="cls-2" d="M175.45,19.57a5.82,5.82,0,0,1-.78,4.46c-2.45,3-6.42,2.77-9.65,2.17-1.76-.54-3.87-1.69-4.31-4.16a6,6,0,0,1,1-4.52c1.22-1.39,2.86-1.78,4.34-2.24a8.71,8.71,0,0,1,1.15,0C170.3,15.3,174.22,15.41,175.45,19.57Zm-7.94-2.83c-.88.18-1.42,1.27-1.62,2.23,0,1.87-.39,3.68.64,5.24a2,2,0,0,0,2.35.66,2.36,2.36,0,0,0,1.18-1.33,10.37,10.37,0,0,0,0-5.6A2.11,2.11,0,0,0,167.51,16.73Z" transform="translate(-1.74 -0.41)"/><path class="cls-2" d="M41.29,18.84A6,6,0,0,1,41,24.09c-2.69,3.62-8.53,3.18-10.78,2.11a5.54,5.54,0,0,1-3.33-3.55,6.23,6.23,0,0,1,.49-4.22c2.06-3,5.49-3.07,8.67-2.77A6.71,6.71,0,0,1,41.29,18.84ZM33,17.46a3,3,0,0,0-1,2.41c0,1.75-.39,4.22,1.37,5.24a2.24,2.24,0,0,0,2.2-.24A3.52,3.52,0,0,0,36.44,23c.1-1.93.29-3.86-.73-5.42A2,2,0,0,0,33,17.46Z" transform="translate(-1.74 -0.41)"/><path class="cls-2" d="M157,17.1a5.15,5.15,0,0,1,1.76,4.34,5.74,5.74,0,0,1-1,2.59A6.26,6.26,0,0,1,153,26.26c-2.94.18-5.88.06-8.87.12.54-.72.34-1.69.39-2.59l0-7.17-.39-.9C148.45,16.13,153.25,14.75,157,17.1Zm-7.5.12v7.41l.15.12c1.32.06,2.89.12,3.58-1.51a6.86,6.86,0,0,0-.1-4.64C152.37,17,150.9,17.1,149.53,17.22Z" transform="translate(-1.74 -0.41)"/><path class="cls-2" d="M99.5,28.85C94.65,33.91,89,37.46,82.69,38.49c-9.41,1.45-18.32-1.57-27.44-2.89-10-1.75-21.12-2.29-30.87.48a69.78,69.78,0,0,0-14,5.38c-.15-.06-.1,0-.1-.14l3.23-1.69C24.48,34.15,36,30.41,49,31.2A98.8,98.8,0,0,1,63,33l12.94,2.71c6.86,1.81,14.6.72,20-4.16l3.23-2.71Z" transform="translate(-1.74 -0.41)"/></svg>